<svg xmlns="http://www.w3.org/2000/svg" height="142.356" width="221.547"><path d="M219.688 108.328c-3.962-30.322-13.445-73.4-44.274-98.258s-43.757 12.167-64.641 12.167-33.812-37.028-64.64-12.167S5.821 78.006 1.859 108.328c-3.772 28.867 24.384 51.908 61.726 8.15 12.928-14.916 17.647-16.145 32.564-16.145h29.248c14.918 0 19.636 1.229 32.564 16.145 37.343 43.758 65.499 20.717 61.727-8.15z" fill="#f3783c" stroke="#3e4147" stroke-linecap="round" stroke-linejoin="round" stroke-width="3"/><path d="M218.784 122.865a74.633 74.633 0 01-20.89 3.363c-15 0-29-18-39-31s-26-11-54-11-28 5-44 17-30 19-41 11C.878 94.941 12.062 61.979 37.133 18.467 13.389 43.837 5.406 81.186 1.859 108.328c-3.772 28.867 24.384 51.908 61.726 8.15 12.928-14.916 17.647-16.144 32.564-16.144h29.248c14.918 0 19.636 1.228 32.565 16.144 30.683 35.955 55.16 26.807 60.822 6.387z" fill="#c35927"/><g stroke="#3e4147" stroke-linecap="round" stroke-linejoin="round" stroke-width="3" transform="translate(-5892.172 -1276.095)"><path d="M6111.86 1384.423c-3.962-30.322-13.445-73.4-44.274-98.258s-43.757 12.167-64.641 12.167-33.812-37.028-64.64-12.167-40.312 67.936-44.274 98.258c-3.772 28.867 24.384 51.908 61.726 8.15 12.928-14.916 17.647-16.145 32.564-16.145h29.248c14.918 0 19.636 1.229 32.564 16.145 37.343 43.758 65.499 20.717 61.727-8.15z" fill="none"/><path d="M5977.779 1319.375h-9.508v-9.508a10.3 10.3 0 00-20.6 0v9.508h-9.507a10.33 10.33 0 00-10.3 10.3 10.33 10.33 0 0010.3 10.3h9.507v9.507a10.3 10.3 0 1020.6 0v-9.507h9.508a10.33 10.33 0 0010.3-10.3 10.33 10.33 0 00-10.3-10.3z" fill="#e6e7e8"/><circle cx="6051.688" cy="1307.506" fill="#f3783c" r="10.057"/><circle cx="6052.5" cy="1347.77" fill="#3077bc" r="10.057"/><circle cx="6071.008" cy="1327.638" fill="#86c3e9" r="10.057"/><circle cx="6032.929" cy="1328.179" fill="#fdcb55" r="10.057"/></g></svg>
